<svg id="Layer_2" data-name="Layer 2" xmlns="http://www.w3.org/2000/svg" viewBox="0 0 1280 1162.98"><defs><style>.cls-1{fill:#4482c4;}.cls-2{fill:#4da346;}.cls-3{fill:#88c65b;}.cls-4{fill:#49b973;}</style></defs><path class="cls-1" d="M1230.44,569.36,1111.12,776a369.86,369.86,0,0,1-320.3,184.92H560.52L443.89,1163H0L338.61,576.64H761.08a37,37,0,0,0,32-18.5l68.25-118.23c14.24-24.66-3.56-55.48-32-55.48H671.48L449.56,0h452.2A369.86,369.86,0,0,1,1222.07,185l8.39,14.53A369.88,369.88,0,0,1,1230.44,569.36Z"/><polygon class="cls-2" points="671.41 384.4 221.91 1162.95 0 1162.95 449.5 384.4 671.41 384.4"/><polygon class="cls-3" points="671.53 384.4 449.5 384.4 227.95 0 449.5 0 671.53 384.4"/><polygon class="cls-4" points="564.03 384.4 563.17 386.01 114.53 1162.95 107.38 1162.95 557 384.4 335.21 0 342.49 0 564.03 384.4"/><polygon class="cls-4" points="508.55 384.4 507.69 386.01 59.18 1162.95 52.03 1162.95 501.52 384.4 279.86 0 286.88 0 508.55 384.4"/><polygon class="cls-4" points="619.51 384.4 618.64 386.01 170.01 1162.95 162.98 1162.95 612.48 384.4 390.81 0 397.84 0 619.51 384.4"/></svg>